HIERARCHY
ROOT hip
{
  OFFSET 0 0 0
  CHANNELS 6 Xposition Yposition Zposition Zrotation Yrotation Xrotation
  JOINT abdomen
  {
    OFFSET 0 20.6881 -0.73152
    CHANNELS 3 Zrotation Xrotation Yrotation
    JOINT chest
    {
      OFFSET 0 11.7043 -0.48768
      CHANNELS 3 Zrotation Xrotation Yrotation
      JOINT neck
      {
        OFFSET 0 22.1894 -2.19456
        CHANNELS 3 Zrotation Xrotation Yrotation
        JOINT head
        {
          OFFSET -0.24384 7.07133 1.2192
          CHANNELS 3 Zrotation Xrotation Yrotation
          JOINT leftEye
          {
            OFFSET 4.14528 8.04674 8.04672
            CHANNELS 3 Zrotation Xrotation Yrotation
            End Site
            {
              OFFSET 1 0 0
            }
          }
          JOINT rightEye
          {
            OFFSET -3.6576 8.04674 8.04672
            CHANNELS 3 Zrotation Xrotation Yrotation
            End Site
            {
              OFFSET 1 0 0
            }
          }
        }
      }
      JOINT rCollar
      {
        OFFSET -2.68224 19.2634 -4.8768
        CHANNELS 3 Zrotation Xrotation Yrotation
        JOINT rShldr
        {
          OFFSET -8.77824 -1.95073 1.46304
          CHANNELS 3 Zrotation Xrotation Yrotation
          JOINT rForeArm
          {
            OFFSET -28.1742 -1.7115 0.48768
            CHANNELS 3 Zrotation Xrotation Yrotation
            JOINT rHand
            {
              OFFSET -22.5879 0.773209 7.07136
              CHANNELS 3 Zrotation Xrotation Yrotation
              JOINT rThumb1
              {
                OFFSET -1.2192 -0.487915 3.41376
                CHANNELS 3 Zrotation Xrotation Yrotation
                JOINT rThumb2
                {
                  OFFSET -3.37035 -0.52449 3.41376
                  CHANNELS 3 Zrotation Xrotation Yrotation
                  End Site
                  {
                    OFFSET -1.78271 -1.18214 1.43049
                  }
                }
              }
              JOINT rIndex1
              {
                OFFSET -7.75947 0.938293 5.60832
                CHANNELS 3 Zrotation Xrotation Yrotation
                JOINT rIndex2
                {
                  OFFSET -2.54057 -0.884171 1.56538
                  CHANNELS 3 Zrotation Xrotation Yrotation
                  End Site
                  {
                    OFFSET -1.62519 -0.234802 1.16502
                  }
                }
              }
              JOINT rMid1
              {
                OFFSET -8.24714 1.18213 3.41376
                CHANNELS 3 Zrotation Xrotation Yrotation
                JOINT rMid2
                {
                  OFFSET -3.10165 -0.590103 1.0647
                  CHANNELS 3 Zrotation Xrotation Yrotation
                  End Site
                  {
                    OFFSET -2.48547 -0.328903 0.83742
                  }
                }
              }
              JOINT rRing1
              {
                OFFSET -8.82822 0.546677 1.51678
                CHANNELS 3 Zrotation Xrotation Yrotation
                JOINT rRing2
                {
                  OFFSET -2.60934 -0.819778 -0.0198488
                  CHANNELS 3 Zrotation Xrotation Yrotation
                  End Site
                  {
                    OFFSET -2.33842 -0.294052 0.168128
                  }
                }
              }
              JOINT rPinky1
              {
                OFFSET -8.27202 -0.0477905 -0.4584
                CHANNELS 3 Zrotation Xrotation Yrotation
                JOINT rPinky2
                {
                  OFFSET -1.82734 -0.647385 -0.700984
                  CHANNELS 3 Zrotation Xrotation Yrotation
                  End Site
                  {
                    OFFSET -1.69225 -0.51767 -0.607171
                  }
                }
              }
            }
          }
        }
      }
      JOINT lCollar
      {
        OFFSET 2.68224 19.2634 -4.8768
        CHANNELS 3 Zrotation Xrotation Yrotation
        JOINT lShldr
        {
          OFFSET 8.77824 -1.95073 1.46304
          CHANNELS 3 Zrotation Xrotation Yrotation
          JOINT lForeArm
          {
            OFFSET 28.1742 -1.7115 0.48768
            CHANNELS 3 Zrotation Xrotation Yrotation
            JOINT lHand
            {
              OFFSET 22.5879 0.773209 7.07136
              CHANNELS 3 Zrotation Xrotation Yrotation
              JOINT lThumb1
              {
                OFFSET 1.2192 -0.487915 3.41376
                CHANNELS 3 Zrotation Xrotation Yrotation
                JOINT lThumb2
                {
                  OFFSET 3.37035 -0.52449 3.41376
                  CHANNELS 3 Zrotation Xrotation Yrotation
                  End Site
                  {
                    OFFSET 1.78271 -1.18214 1.43049
                  }
                }
              }
              JOINT lIndex1
              {
                OFFSET 7.75947 0.938293 5.60832
                CHANNELS 3 Zrotation Xrotation Yrotation
                JOINT lIndex2
                {
                  OFFSET 2.54057 -0.884171 1.56538
                  CHANNELS 3 Zrotation Xrotation Yrotation
                  End Site
                  {
                    OFFSET 1.62519 -0.234802 1.16502
                  }
                }
              }
              JOINT lMid1
              {
                OFFSET 8.24714 1.18213 3.41376
                CHANNELS 3 Zrotation Xrotation Yrotation
                JOINT lMid2
                {
                  OFFSET 3.10165 -0.590103 1.0647
                  CHANNELS 3 Zrotation Xrotation Yrotation
                  End Site
                  {
                    OFFSET 2.48547 -0.328903 0.83742
                  }
                }
              }
              JOINT lRing1
              {
                OFFSET 8.82822 0.546677 1.51678
                CHANNELS 3 Zrotation Xrotation Yrotation
                JOINT lRing2
                {
                  OFFSET 2.60934 -0.819778 -0.0198488
                  CHANNELS 3 Zrotation Xrotation Yrotation
                  End Site
                  {
                    OFFSET 2.33842 -0.294052 0.168128
                  }
                }
              }
              JOINT lPinky1
              {
                OFFSET 8.27202 -0.0477905 -0.4584
                CHANNELS 3 Zrotation Xrotation Yrotation
                JOINT lPinky2
                {
                  OFFSET 1.82734 -0.647385 -0.700984
                  CHANNELS 3 Zrotation Xrotation Yrotation
                  End Site
                  {
                    OFFSET 1.69225 -0.51767 -0.607171
                  }
                }
              }
            }
          }
        }
      }
    }
  }
  JOINT rButtock
  {
    OFFSET -8.77824 4.35084 1.2192
    CHANNELS 3 Zrotation Xrotation Yrotation
    JOINT rThigh
    {
      OFFSET 0 -1.70687 -2.19456
      CHANNELS 3 Zrotation Xrotation Yrotation
      JOINT rShin
      {
        OFFSET 0 -36.8199 0.73152
        CHANNELS 3 Zrotation Xrotation Yrotation
        JOINT rFoot
        {
          OFFSET 0.73152 -45.1104 -5.12064
          CHANNELS 3 Zrotation Xrotation Yrotation
          End Site
          {
            OFFSET -1.1221 -3.69964 12.103
          }
        }
      }
    }
  }
  JOINT lButtock
  {
    OFFSET 8.77824 4.35084 1.2192
    CHANNELS 3 Zrotation Xrotation Yrotation
    JOINT lThigh
    {
      OFFSET 0 -1.70687 -2.19456
      CHANNELS 3 Zrotation Xrotation Yrotation
      JOINT lShin
      {
        OFFSET 0 -36.8199 0.73152
        CHANNELS 3 Zrotation Xrotation Yrotation
        JOINT lFoot
        {
          OFFSET -0.73152 -45.1104 -5.12064
          CHANNELS 3 Zrotation Xrotation Yrotation
          End Site
          {
            OFFSET 1.1221 -3.69964 12.103
          }
        }
      }
    }
  }
}
MOTION
Frames:	4
Frame Time:	0.03333
1.799256820231676 60.28875112533569 11.14494064822793 6.821458339691162 18.560503005981445 -10.654176712036133 -15.446038246154785 21.256223678588867 -2.3519773483276367 10.458564758300781 -6.679965972900391 -0.47377610206604004 -7.10779333114624 16.50215721130371 -8.33326244354248 9.653631210327148 -18.662099838256836 -13.428204536437988 0.0459369495511055 0.11204537749290466 0.06022828444838524 0.32693180441856384 0.034748438745737076 0.07998278737068176 -0.019031262025237083 -0.23941706120967865 -0.011779088526964188 71.6473617553711 28.59589195251465 -11.350173950195312 -24.19864273071289 -19.27940559387207 50.70850372314453 0.28384658694267273 7.284421443939209 0.7274971008300781 -0.17693133652210236 -0.024099817499518394 -0.19291146099567413 -0.047814127057790756 -0.08124908059835434 -0.06878646463155746 -0.050532057881355286 -0.07312841713428497 -0.0025138002820312977 7.76357889175415 5.469318389892578 0.5774140954017639 -0.24354161322116852 -0.0757768526673317 -0.18374668061733246 2.8422341346740723 1.027645230293274 0.13870687782764435 0.0135679692029953 0.12010881304740906 -0.19796231389045715 10.052756309509277 0.7669359445571899 -0.04512689262628555 -0.09569299966096878 0.15474000573158264 -0.07769202440977097 2.130004405975342 -0.41538527607917786 -0.04200762137770653 0.13717594742774963 -0.14011037349700928 0.24173858761787415 -65.56327819824219 37.26789093017578 -10.335604667663574 17.714853286743164 -11.446491241455078 -36.485164642333984 -0.3212568759918213 5.359855651855469 -0.8125746250152588 0.15477730333805084 -0.2586369812488556 -0.1512458324432373 0.09799044579267502 -0.005238234996795654 0.011571655981242657 -0.009264126420021057 0.07058127224445343 0.20951798558235168 -7.568027973175049 5.651523113250732 -0.3250919580459595 0.10993105918169022 -0.04792052507400513 0.07308699935674667 -2.9086380004882812 1.1044774055480957 -0.2259688675403595 0.22105056047439575 0.10260388255119324 0.1138589158654213 -9.945779800415039 0.8069558143615723 -0.10329693555831909 -0.1451493352651596 -0.04787705838680267 0.2538416087627411 -2.1166467666625977 -0.8605517745018005 -0.1656043827533722 -0.00900473352521658 0.005205218680202961 -0.17308621108531952 -29.737701416015625 -50.31498336791992 -16.368183135986328 0.34808364510536194 37.56386184692383 0.0589960515499115 -0.2949751317501068 12.002300262451172 10.974108695983887 0.09817663580179214 -0.0963042825460434 -0.01804066263139248 4.058830261230469 4.773140907287598 4.981299877166748 0.5682743191719055 56.19807052612305 -3.595444917678833 20.842565536499023 -28.73655128479004 36.29985046386719
1.731571089476347 60.69957613945007 11.480774264782667 6.743437767028809 21.355304718017578 -8.777442932128906 -15.792649269104004 20.51080322265625 -2.056002140045166 10.39827823638916 -6.816092014312744 -0.33486178517341614 -7.277373313903809 16.821956634521484 -8.888569831848145 9.968438148498535 -18.85401725769043 -14.424025535583496 0.08849947154521942 0.11091320216655731 0.02635924518108368 0.23462630808353424 0.0520857498049736 0.10147425532341003 -0.02478698082268238 -0.181343212723732 -0.02883656695485115 72.74959564208984 26.94748878479004 -13.242676734924316 -23.165300369262695 -17.70868682861328 48.15614318847656 0.4432392418384552 8.01629638671875 0.6269909739494324 -0.1847294420003891 -0.06640684604644775 -0.1275728940963745 -0.0012721087550744414 -0.05987356975674629 -0.07506953179836273 -0.0514206700026989 -0.04551803320646286 0.02612231858074665 7.815496921539307 5.4278693199157715 0.5554638504981995 -0.2116941213607788 -0.12689460813999176 -0.20266111195087433 2.8168718814849854 1.0944652557373047 0.12170962989330292 0.052263591438531876 0.10869328677654266 -0.1870814710855484 9.998252868652344 0.744464099407196 -0.018572648987174034 -0.1308034062385559 0.14511114358901978 -0.1412881761789322 2.138134002685547 -0.3995242416858673 -0.0014451183378696442 0.1453309804201126 -0.11192434281110764 0.19514423608779907 -65.73550415039062 37.41207504272461 -10.332306861877441 18.07057762145996 -12.38668441772461 -38.29587173461914 -0.5881215333938599 1.4318044185638428 -0.16702081263065338 0.1707916408777237 -0.19731350243091583 -0.13125449419021606 0.1875196248292923 -0.02481265366077423 0.042721476405858994 -0.030025148764252663 0.002578987507149577 0.23059159517288208 -7.583966255187988 5.651421070098877 -0.27140066027641296 0.07178127765655518 -0.03446493297815323 0.09415264427661896 -2.9008564949035645 1.1841843128204346 -0.29113537073135376 0.23665151000022888 0.05949395149946213 0.05895083025097847 -9.933566093444824 0.8067322373390198 -0.16923727095127106 -0.12481959909200668 -0.12240944057703018 0.23729009926319122 -2.1296846866607666 -0.7880261540412903 -0.16841919720172882 -0.016707733273506165 -0.016771994531154633 -0.2119458168745041 -31.95598030090332 -49.98095703125 -19.36949348449707 0.29387038946151733 38.96527862548828 0.249252051115036 0.010206656530499458 10.912984848022461 10.92474365234375 0.09392093122005463 -0.06144405156373978 -0.02212710678577423 4.590794086456299 5.4944305419921875 3.7338144779205322 0.7561739683151245 55.84870529174805 -3.8559813499450684 20.525516510009766 -27.724599838256836 36.81395721435547
1.7261413857340813 60.10869741439819 11.700550932437181 4.068902492523193 26.47185707092285 -7.2076520919799805 -14.242395401000977 19.895503997802734 -3.7567265033721924 10.91970157623291 -6.9493584632873535 -0.9263367056846619 -7.639801979064941 17.40159797668457 -10.464865684509277 11.479865074157715 -19.96255111694336 -17.134632110595703 0.08812281489372253 0.08951424062252045 0.04236391559243202 0.15119804441928864 0.11655661463737488 0.09298581629991531 -0.006915906444191933 -0.18297326564788818 0.03131451457738876 75.141357421875 21.145973205566406 -17.671741485595703 -23.360301971435547 -17.843442916870117 47.5899772644043 0.468874454498291 5.705746650695801 0.22069376707077026 -0.12310165166854858 -0.04647208750247955 -0.05090564116835594 0.008959098719060421 -0.0260287094861269 -0.005294525995850563 -0.048465389758348465 -0.0548548549413681 0.08554832637310028 7.765416145324707 5.468557834625244 0.5368755459785461 -0.050669826567173004 -0.1764076203107834 -0.10455422848463058 2.839777708053589 1.0889883041381836 0.057883601635694504 0.04023158550262451 0.04777989909052849 -0.1485043168067932 10.04094123840332 0.729148805141449 0.06627831608057022 -0.07616549730300903 0.09661711007356644 -0.09987394511699677 2.2266547679901123 -0.5501901507377625 -0.006799330469220877 0.13398952782154083 -0.07623261958360672 0.18747545778751373 -63.9043083190918 36.92170715332031 -15.185182571411133 16.872722625732422 -10.688994407653809 -34.64724349975586 -0.4232267737388611 3.845583438873291 -0.4330051839351654 0.2186218649148941 -0.23129671812057495 -0.04720650985836983 0.11371459066867828 -0.004101197235286236 0.026967933401465416 0.007761654444038868 -0.0004951274022459984 0.1816987693309784 -7.610740661621094 5.649023056030273 -0.28427454829216003 0.05449286848306656 0.0036816676147282124 0.13150683045387268 -2.8476288318634033 1.1991124153137207 -0.2044021487236023 0.13115428388118744 0.02287166751921177 0.013355459086596966 -9.995587348937988 0.7208123207092285 -0.18258517980575562 -0.16525492072105408 -0.17257773876190186 0.22733257710933685 -2.218954086303711 -0.7651495933532715 -0.11105728894472122 0.0025013438425958157 -0.053418152034282684 -0.16876843571662903 -33.59077835083008 -45.8798828125 -18.581493377685547 0.29450270533561707 35.699066162109375 0.2107294648885727 0.6844801306724548 14.749053955078125 9.812673568725586 0.053862955421209335 -0.007158214692026377 0.012301457114517689 6.586353778839111 3.916930675506592 1.4720072746276855 1.116645336151123 57.80429458618164 -4.155120372772217 19.14641571044922 -26.60177993774414 36.57284164428711
1.7948662862181664 59.19836163520813 11.850406881421804 1.982724666595459 29.842206954956055 -6.934690475463867 -12.483156204223633 19.54960823059082 -5.416863918304443 10.977845191955566 -7.415704250335693 -1.3248440027236938 -7.812337875366211 17.90604019165039 -11.347813606262207 13.198262214660645 -21.723018646240234 -18.98921775817871 0.060024160891771317 0.05260629206895828 0.0018231852445751429 0.12937957048416138 0.13879024982452393 0.04260328412055969 0.09502557665109634 -0.18137788772583008 0.017066147178411484 74.73070526123047 17.221982955932617 -18.836727142333984 -23.725658416748047 -18.807903289794922 48.823177337646484 0.4050304591655731 3.1960513591766357 0.06312526762485504 -0.09901127964258194 -0.06118062883615494 -0.0036786082200706005 0.018453218042850494 0.07722162455320358 0.0303939376026392 -0.02376384101808071 -0.021827617660164833 0.09794645011425018 7.7377424240112305 5.4482011795043945 0.4459128677845001 0.0016144418623298407 -0.07079938799142838 -0.04774024710059166 2.904200553894043 1.0560141801834106 0.01811331883072853 0.06603915989398956 0.01636558584868908 -0.15868093073368073 10.10855770111084 0.657436728477478 0.1278323382139206 0.018508700653910637 0.007942622527480125 0.0073450785130262375 2.2596635818481445 -0.6556333303451538 -0.036828115582466125 0.14217324554920197 -0.06899140030145645 0.1473436951637268 -61.94887924194336 36.60751724243164 -21.040372848510742 16.24190330505371 -9.333329200744629 -31.8468017578125 -0.1568789929151535 8.21945571899414 -1.0104128122329712 0.20611472427845 -0.26799383759498596 0.05665357783436775 0.0029814511071890593 -0.0023744162172079086 0.08910728245973587 0.045689523220062256 -0.007615271024405956 0.08622709661722183 -7.7078447341918945 5.605928421020508 -0.33275774121284485 0.058293309062719345 0.04672941192984581 0.2151460200548172 -2.8236794471740723 1.199205756187439 -0.15743692219257355 0.0532015860080719 -0.03855787217617035 -0.019981108605861664 -10.063400268554688 0.6710888147354126 -0.15187948942184448 -0.10600854456424713 -0.16191361844539642 0.14328499138355255 -2.3032517433166504 -0.7856453657150269 0.015755360946059227 -0.014582802541553974 -0.0991857573390007 -0.15488097071647644 -35.0366325378418 -44.73469924926758 -20.09340476989746 0.25301459431648254 38.12482833862305 0.3092844784259796 0.8636301755905151 16.053369522094727 8.500035285949707 0.0832071527838707 0.019644225016236305 0.011517524719238281 8.997512817382812 0.5182420015335083 0.5697180032730103 1.3697377443313599 61.45498275756836 -4.323678493499756 17.930952072143555 -25.94550132751465 35.58005905151367
